# xmcd
#
# Track frame offsets:
#	150
#	16385
#	27517
#	45056
#	59497
#	70026
#	84531
#	94626
#	116885
#	130891
#	148565
#	167812
#	182140
#
# Disc length: 2583 seconds
#
# Revision: 1
# Processed by: cddbd v1.5.1PL2 Copyright (c) Steve Scherf et al.
# Submitted via: audiograbber 1.83.01
#
DISCID=ad0a150d
DTITLE=Oberwart 3 - 513
DYEAR=2001
DGENRE=Blues
TTITLE0=Peaceful easy feeling
TTITLE1=Looking out my backdoor
TTITLE2=Helpless
TTITLE3=Der Frauenmörder Wurm
TTITLE4=Apartement Song
TTITLE5=Arbeit
TTITLE6=Singing the Blues
TTITLE7=Langsam wachs' ma z'amm
TTITLE8=Handle with care
TTITLE9=Junge geh nicht zu den Indios
TTITLE10=Lauf Hase lauf
TTITLE11=See you later Alligator
TTITLE12=Marmor, Stein und Eisen bricht
EXTD=
EXTT0=
EXTT1=
EXTT2=
EXTT3=
EXTT4=
EXTT5=
EXTT6=
EXTT7=
EXTT8=
EXTT9=
EXTT10=
EXTT11=
EXTT12=
PLAYORDER=
